<svg width="24" height="21" viewBox="0 0 24 21" fill="none" xmlns="http://www.w3.org/2000/svg">
<path d="M14.2031 0.25C12.9844 0.25 11.8828 0.570312 10.8984 1.21094C9.92969 1.85156 9.1875 2.6875 8.67188 3.71875C8.57812 3.70313 8.48438 3.69531 8.39062 3.69531C8.3125 3.67969 8.23438 3.67188 8.15625 3.67188C7.39062 3.67188 6.70312 3.89844 6.09375 4.35156C5.5 4.80469 5.08594 5.375 4.85156 6.0625C4.19531 6.20312 3.58594 6.45312 3.02344 6.8125C2.46094 7.15625 1.96875 7.58594 1.54688 8.10156C1.14062 8.61719 0.820312 9.19531 0.585938 9.83594C0.367188 10.4766 0.257812 11.1484 0.257812 11.8516C0.257812 12.6641 0.40625 13.4297 0.703125 14.1484C1 14.8516 1.39844 15.4766 1.89844 16.0234C2.41406 16.5547 3.02344 16.9766 3.72656 17.2891C4.41406 17.6016 5.15625 17.7578 5.95312 17.7578H6.49219C6.71094 17.7578 6.89062 17.6875 7.03125 17.5469C7.17188 17.3906 7.24219 17.2109 7.24219 17.0078C7.24219 16.7891 7.17188 16.6094 7.03125 16.4688C6.89062 16.3281 6.71094 16.2578 6.49219 16.2578H5.95312C4.79688 16.2578 3.80469 15.8359 2.97656 14.9922C2.16406 14.1328 1.75781 13.0859 1.75781 11.8516C1.75781 10.7578 2.08594 9.8125 2.74219 9.01562C3.41406 8.20312 4.24219 7.71094 5.22656 7.53906C5.47656 7.49219 5.6875 7.38281 5.85938 7.21094C6.04688 7.03906 6.17969 6.83594 6.25781 6.60156C6.39844 6.17969 6.64062 5.83594 6.98438 5.57031C7.32812 5.30469 7.71875 5.17188 8.15625 5.17188C8.20312 5.17188 8.25 5.17969 8.29688 5.19531C8.35938 5.19531 8.42188 5.20313 8.48438 5.21875C8.76562 5.26562 9.04688 5.22656 9.32812 5.10156C9.60938 4.97656 9.82031 4.76562 9.96094 4.46875C10.3516 3.65625 10.9219 3 11.6719 2.5C12.4375 2 13.2812 1.75 14.2031 1.75C14.8438 1.75 15.4531 1.875 16.0312 2.125C16.6094 2.39063 17.1094 2.75 17.5312 3.20312C17.9688 3.64062 18.3125 4.16406 18.5625 4.77344C18.8281 5.38281 18.9609 6.03125 18.9609 6.71875C18.9609 6.95312 19.0234 7.17188 19.1484 7.375C19.2734 7.5625 19.4453 7.70312 19.6641 7.79688C20.4141 8.125 21.0312 8.65625 21.5156 9.39062C22 10.1094 22.2422 10.9297 22.2422 11.8516C22.2422 13.0859 21.8281 14.1328 21 14.9922C20.1875 15.8359 19.2031 16.2578 18.0469 16.2578H17.5078C17.2891 16.2578 17.1094 16.3281 16.9688 16.4688C16.8281 16.6094 16.7578 16.7891 16.7578 17.0078C16.7578 17.2109 16.8281 17.3906 16.9688 17.5469C17.1094 17.6875 17.2891 17.7578 17.5078 17.7578H18.0469C18.8438 17.7578 19.5859 17.6016 20.2734 17.2891C20.9766 16.9766 21.5781 16.5547 22.0781 16.0234C22.5938 15.4766 23 14.8516 23.2969 14.1484C23.5938 13.4297 23.7422 12.6641 23.7422 11.8516C23.7422 10.6797 23.4375 9.61719 22.8281 8.66406C22.2188 7.69531 21.4219 6.97656 20.4375 6.50781C20.4219 5.64844 20.2422 4.83594 19.8984 4.07031C19.5703 3.32031 19.125 2.66406 18.5625 2.10156C18 1.52344 17.3438 1.07031 16.5938 0.742188C15.8438 0.414062 15.0469 0.25 14.2031 0.25ZM17.2734 13.0938C17.4297 12.9531 17.5078 12.7812 17.5078 12.5781C17.5078 12.3594 17.4297 12.1797 17.2734 12.0391L12.6094 7.35156C12.5156 7.25781 12.3984 7.21094 12.2578 7.21094C12.1172 7.21094 12 7.25781 11.9062 7.35156L7.21875 12.0391C7.07812 12.1797 7.00781 12.3594 7.00781 12.5781C7.00781 12.7812 7.07812 12.9531 7.21875 13.0938C7.35938 13.2344 7.53125 13.3047 7.73438 13.3047C7.95312 13.3047 8.13281 13.2344 8.27344 13.0938L11.5078 9.88281V19.5625C11.5078 19.7656 11.5781 19.9453 11.7188 20.1016C11.8594 20.2422 12.0391 20.3125 12.2578 20.3125C12.4609 20.3125 12.6328 20.2422 12.7734 20.1016C12.9297 19.9453 13.0078 19.7656 13.0078 19.5625V9.88281L16.2188 13.0938C16.3594 13.2344 16.5312 13.3047 16.7344 13.3047C16.9531 13.3047 17.1328 13.2344 17.2734 13.0938Z" fill="#C209C1"/>
</svg>
