<svg width="20" height="20" viewBox="0 0 20 20" fill="none" xmlns="http://www.w3.org/2000/svg">
<path d="M10 20C8.61979 20 7.32422 19.7396 6.11328 19.2188C4.88932 18.6979 3.82161 17.9883 2.91016 17.0898C2.01172 16.1784 1.30208 15.1107 0.78125 13.8867C0.260417 12.6758 0 11.3802 0 10C0 8.61979 0.260417 7.32422 0.78125 6.11328C1.30208 4.88932 2.01172 3.82812 2.91016 2.92969C3.82161 2.01823 4.88932 1.30208 6.11328 0.78125C7.32422 0.260417 8.61979 0 10 0C11.3802 0 12.6758 0.260417 13.8867 0.78125C15.1107 1.30208 16.1719 2.01823 17.0703 2.92969C17.9818 3.82812 18.6979 4.88932 19.2188 6.11328C19.7396 7.32422 20 8.61979 20 10C20 11.3802 19.7396 12.6758 19.2188 13.8867C18.6979 15.1107 17.9818 16.1784 17.0703 17.0898C16.1719 17.9883 15.1107 18.6979 13.8867 19.2188C12.6758 19.7396 11.3802 20 10 20ZM13.7695 6.23047C13.6523 6.10026 13.5026 6.03516 13.3203 6.03516C13.151 6.03516 13.0078 6.10026 12.8906 6.23047L10 9.12109L7.10938 6.23047C6.99219 6.10026 6.84245 6.03516 6.66016 6.03516C6.49089 6.03516 6.34766 6.10026 6.23047 6.23047C6.10026 6.34766 6.03516 6.4974 6.03516 6.67969C6.03516 6.84896 6.10026 6.99219 6.23047 7.10938L9.12109 10L6.23047 12.8906C6.10026 13.0078 6.03516 13.1576 6.03516 13.3398C6.03516 13.5091 6.10026 13.6523 6.23047 13.7695C6.34766 13.8997 6.49089 13.9648 6.66016 13.9648C6.84245 13.9648 6.99219 13.8997 7.10938 13.7695L10 10.8789L12.8906 13.7695C13.0078 13.8997 13.151 13.9648 13.3203 13.9648C13.5026 13.9648 13.6523 13.8997 13.7695 13.7695C13.8997 13.6523 13.9648 13.5091 13.9648 13.3398C13.9648 13.1576 13.8997 13.0078 13.7695 12.8906L10.8789 10L13.7695 7.10938C13.8997 6.99219 13.9648 6.84896 13.9648 6.67969C13.9648 6.4974 13.8997 6.34766 13.7695 6.23047Z" fill="#4C4C4C"/>
</svg>
