<svg width="8" height="8" viewBox="0 0 4 6" fill="none" xmlns="http://www.w3.org/2000/svg">
<path d="M0.953125 1.35938C0.848958 1.25521 0.796875 1.13542 0.796875 1C0.796875 0.864583 0.848958 0.744792 0.953125 0.640625C1.04688 0.546875 1.16146 0.5 1.29688 0.5C1.43229 0.5 1.55208 0.546875 1.65625 0.640625L3.65625 2.64062C3.75 2.74479 3.79688 2.86458 3.79688 3C3.79688 3.13542 3.75 3.25521 3.65625 3.35938L1.65625 5.35938C1.55208 5.45312 1.43229 5.5 1.29688 5.5C1.16146 5.5 1.04688 5.45312 0.953125 5.35938C0.848958 5.25521 0.796875 5.13542 0.796875 5C0.796875 4.86458 0.848958 4.74479 0.953125 4.64062L2.59375 3L0.953125 1.35938Z" fill="white"/>
</svg>
