<svg width="8" height="8" viewBox="0 0 4 6" fill="none" xmlns="http://www.w3.org/2000/svg">
<path d="M2.98438 1.35938C3.08854 1.25521 3.14062 1.13542 3.14062 1C3.14062 0.864583 3.08854 0.744792 2.98438 0.640625C2.89062 0.546875 2.77083 0.5 2.625 0.5C2.48958 0.5 2.375 0.546875 2.28125 0.640625L0.28125 2.64062C0.1875 2.74479 0.140625 2.86458 0.140625 3C0.140625 3.13542 0.1875 3.25521 0.28125 3.35938L2.28125 5.35938C2.375 5.45312 2.48958 5.5 2.625 5.5C2.77083 5.5 2.89062 5.45312 2.98438 5.35938C3.08854 5.25521 3.14062 5.13542 3.14062 5C3.14062 4.86458 3.08854 4.74479 2.98438 4.64062L1.34375 3L2.98438 1.35938Z" fill="white"/>
</svg>
