<svg width="18" height="17" viewBox="0 0 18 17" fill="none" xmlns="http://www.w3.org/2000/svg">
<path d="M14.215 0.0766602C13.3425 0.0766602 12.6 0.382493 11.9883 0.994994C11.6978 1.28342 11.4685 1.62754 11.3141 2.00671C11.1598 2.38589 11.0835 2.79232 11.09 3.20166C11.09 3.44461 11.1162 3.68686 11.1683 3.92416L6.28499 6.54166C5.99946 6.16486 5.63219 5.85771 5.21083 5.64333C4.77338 5.40703 4.28298 5.28601 3.78583 5.29166C2.92583 5.29166 2.18999 5.59749 1.57749 6.20999C0.965828 6.82166 0.660828 7.55749 0.660828 8.41666C0.660828 9.27583 0.965828 10.0117 1.57749 10.6233C2.18999 11.2358 2.92583 11.5417 3.78583 11.5417C4.27435 11.5462 4.75671 11.4324 5.19166 11.21C5.61924 10.9881 5.99257 10.6745 6.28499 10.2917L11.1483 12.9867C11.1225 13.0908 11.1025 13.195 11.09 13.2992V13.6317C11.0835 14.041 11.1598 14.4474 11.3141 14.8266C11.4685 15.2058 11.6978 15.5499 11.9883 15.8383C12.6 16.4508 13.3425 16.7567 14.215 16.7567C15.0742 16.7567 15.81 16.4508 16.4217 15.8383C17.0342 15.2267 17.34 14.4908 17.34 13.6317C17.34 12.7592 17.0342 12.0233 16.4217 11.4242C15.81 10.8125 15.0742 10.5067 14.215 10.5067C13.7114 10.5024 13.2146 10.6232 12.7692 10.8583C12.3378 11.0831 11.9638 11.4038 11.6758 11.7958L6.83166 9.11999C6.85833 9.01583 6.87749 8.90499 6.89 8.78749C6.93176 8.42845 6.91203 8.06491 6.83166 7.71249L11.715 5.09583C12.0017 5.47416 12.3592 5.77333 12.7892 5.99499C13.2315 6.21607 13.7197 6.3297 14.2142 6.32666C14.6238 6.33336 15.0305 6.25724 15.41 6.10287C15.7895 5.9485 16.1339 5.71906 16.4225 5.42833C17.0342 4.81666 17.3392 4.07416 17.3392 3.20166C17.3392 2.34249 17.0342 1.60666 16.4225 0.994994C15.81 0.382493 15.0742 0.0766602 14.2142 0.0766602H14.215ZM12.34 3.20166C12.34 2.69333 12.5225 2.25749 12.8867 1.89333C13.2517 1.51583 13.6942 1.32666 14.215 1.32666C14.7233 1.32666 15.1592 1.51583 15.5233 1.89333C15.9008 2.25749 16.09 2.69333 16.09 3.20166C16.09 3.72249 15.9008 4.16499 15.5233 4.52999C15.1592 4.89416 14.7233 5.07666 14.215 5.07666C13.968 5.08111 13.7227 5.0349 13.4942 4.94088C13.2658 4.84686 13.059 4.70702 12.8867 4.52999C12.7096 4.35767 12.5698 4.1509 12.4758 3.92243C12.3818 3.69397 12.3355 3.44867 12.34 3.20166ZM1.90999 8.41666C1.90999 7.89583 2.09249 7.45333 2.45666 7.08833C2.63047 6.91328 2.83752 6.77475 3.06563 6.68087C3.29375 6.587 3.53833 6.53966 3.78499 6.54166C4.03201 6.53721 4.27731 6.58342 4.50577 6.67744C4.73423 6.77147 4.941 6.9113 5.11333 7.08833C5.47749 7.45333 5.65999 7.89583 5.65999 8.41666C5.66444 8.66367 5.61823 8.90897 5.52421 9.13743C5.43019 9.3659 5.29035 9.57267 5.11333 9.74499C4.941 9.92202 4.73423 10.0619 4.50577 10.1559C4.27731 10.2499 4.03201 10.2961 3.78499 10.2917C3.27666 10.2917 2.83499 10.1092 2.45666 9.74499C2.27964 9.57267 2.1398 9.3659 2.04578 9.13743C1.95176 8.90897 1.90554 8.66367 1.90999 8.41666ZM14.215 11.7567C14.7233 11.7567 15.1592 11.9392 15.5233 12.3033C15.9008 12.6683 16.09 13.1108 16.09 13.6317C16.09 14.14 15.9008 14.5817 15.5233 14.96C15.1592 15.3242 14.7233 15.5067 14.215 15.5067C13.968 15.5111 13.7227 15.4649 13.4942 15.3709C13.2658 15.2769 13.059 15.137 12.8867 14.96C12.5225 14.5817 12.34 14.1392 12.34 13.6317C12.34 13.1108 12.5225 12.6683 12.8867 12.3033C13.059 12.1263 13.2658 11.9865 13.4942 11.8924C13.7227 11.7984 13.968 11.7522 14.215 11.7567Z" fill="black"/>
</svg>
