<svg width="10" height="10" viewBox="0 0 10 10" fill="none" xmlns="http://www.w3.org/2000/svg">
<path fill-rule="evenodd" clip-rule="evenodd" d="M2.0364 0.763604C1.68492 0.412132 1.11508 0.412132 0.763604 0.763604C0.412132 1.11508 0.412132 1.68492 0.763604 2.0364L3.72721 5L0.763604 7.9636C0.412132 8.31508 0.412132 8.88492 0.763604 9.2364C1.11508 9.58787 1.68492 9.58787 2.0364 9.2364L5 6.27279L7.9636 9.2364C8.31508 9.58787 8.88492 9.58787 9.2364 9.2364C9.58787 8.88492 9.58787 8.31508 9.2364 7.9636L6.27279 5L9.2364 2.0364C9.58787 1.68492 9.58787 1.11508 9.2364 0.763604C8.88492 0.412132 8.31508 0.412132 7.9636 0.763604L5 3.72721L2.0364 0.763604Z" fill="white"/>
</svg>
