<svg width="17" height="18" viewBox="0 0 17 18" fill="none" xmlns="http://www.w3.org/2000/svg">
<path d="M3.63169 4V4.215H3.41669C2.55752 4.215 1.82169 4.52083 1.21002 5.1325C0.59752 5.7325 0.291687 6.4675 0.291687 7.34V14C0.291687 14.8592 0.59752 15.595 1.21002 16.2067C1.82169 16.8192 2.55752 17.125 3.41669 17.125H10.0767C10.9492 17.125 11.685 16.8192 12.2842 16.2067C12.8959 15.595 13.2017 14.8592 13.2017 14V13.785H13.4167C13.826 13.7915 14.2325 13.7152 14.6116 13.5609C14.9908 13.4065 15.3349 13.1772 15.6234 12.8867C16.2359 12.275 16.5417 11.5325 16.5417 10.66V4C16.5417 3.14083 16.2359 2.405 15.6234 1.79333C15.0117 1.18083 14.2759 0.875 13.4167 0.875H6.75669C5.88419 0.875 5.14169 1.18083 4.53002 1.79333C4.23949 2.08176 4.01017 2.42587 3.85581 2.80505C3.70144 3.18423 3.62522 3.59066 3.63169 4ZM4.88169 4.215V4C4.88169 3.47917 5.06419 3.03667 5.42835 2.67167C5.60068 2.49464 5.80745 2.3548 6.03591 2.26078C6.26437 2.16676 6.50968 2.12055 6.75669 2.125H13.4167C13.6637 2.12055 13.909 2.16676 14.1375 2.26078C14.3659 2.3548 14.5727 2.49464 14.745 2.67167C15.1092 3.03667 15.2917 3.47917 15.2917 4V10.66C15.2961 10.907 15.2499 11.1523 15.1559 11.3808C15.0619 11.6092 14.922 11.816 14.745 11.9883C14.5727 12.1654 14.3659 12.3052 14.1375 12.3992C13.909 12.4932 13.6637 12.5394 13.4167 12.535H13.2017V7.34C13.2017 6.4675 12.8959 5.73167 12.2842 5.1325C11.6842 4.52083 10.9492 4.215 10.0767 4.215H4.88169ZM1.54169 7.34C1.54169 6.81917 1.72419 6.37667 2.08835 6.01167C2.26068 5.83464 2.46745 5.69481 2.69591 5.60078C2.92437 5.50676 3.16968 5.46055 3.41669 5.465H10.0767C10.3237 5.46055 10.569 5.50676 10.7975 5.60078C11.0259 5.69481 11.2327 5.83464 11.405 6.01167C11.7692 6.37667 11.9517 6.81917 11.9517 7.34V14C11.9561 14.247 11.9099 14.4923 11.8159 14.7208C11.7219 14.9492 11.582 15.156 11.405 15.3283C11.2327 15.5054 11.0259 15.6452 10.7975 15.7392C10.569 15.8332 10.3237 15.8794 10.0767 15.875H3.41669C3.16968 15.8794 2.92437 15.8332 2.69591 15.7392C2.46745 15.6452 2.26068 15.5054 2.08835 15.3283C1.91133 15.156 1.77149 14.9492 1.67747 14.7208C1.58345 14.4923 1.53724 14.247 1.54169 14V7.34Z" fill="black"/>
</svg>
